# xmcd CD database file
#
# Track frame offsets:
#	150
#	17462
#	36717
#	59870
#	70472
#	94867
#	112765
#	137387
#	149735
#	169480
#	197340
#	228545
#	249409
#	268610
#	280850
#
# Disc length: 3968 seconds
#
# Revision: 1
# Processed by: cddbd v1.5.2PL0 Copyright (c) Steve Scherf et al.
# Submitted via: CDex 1.51
#
DISCID=e30f7e0f
DTITLE=Nina Simone - The Lady Was The Blues
DYEAR=1900
DGENRE=Jazz
TTITLE0=Please Dont Let Me Be Misunderstood
TTITLE1=When I Was In My Prime
TTITLE2=Gin House Blues
TTITLE3=I Want A Little Sugar In My Bowl
TTITLE4=But Beautiful
TTITLE5=See Line Woman
TTITLE6=The Thrill Is Gone
TTITLE7=I'll Look Around
TTITLE8=Blues
TTITLE9=Ain't Got No
TTITLE10=House Of The Rising Sun
TTITLE11=Blue Prelude
TTITLE12=Spring Is Here
TTITLE13=Ain't No Use
TTITLE14=Cotton Eyed Joe
EXTD=
EXTT0=
EXTT1=
EXTT2=
EXTT3=
EXTT4=
EXTT5=
EXTT6=
EXTT7=
EXTT8=
EXTT9=
EXTT10=
EXTT11=
EXTT12=
EXTT13=
EXTT14=
PLAYORDER=
